<?xml version="1.0" encoding="UTF-8" standalone="no"?>
<svg
   xmlns:dc="http://purl.org/dc/elements/1.1/"
   xmlns:cc="http://creativecommons.org/ns#"
   xmlns:rdf="http://www.w3.org/1999/02/22-rdf-syntax-ns#"
   xmlns:svg="http://www.w3.org/2000/svg"
   xmlns="http://www.w3.org/2000/svg"
   xmlns:sodipodi="http://sodipodi.sourceforge.net/DTD/sodipodi-0.dtd"
   xmlns:inkscape="http://www.inkscape.org/namespaces/inkscape"
   width="64.9375in"
   height="12.15625in"
   viewBox="0 0 1649.4124 308.76881"
   version="1.1"
   id="svg8"
   inkscape:version="1.0.1 (3bc2e813f5, 2020-09-07, custom)"
   sodipodi:docname="45drives-logo-light.svg">
  <defs
     id="defs2">
    <clipPath
       clipPathUnits="userSpaceOnUse"
       id="clipPath26">
      <path
         d="M 0,472 H 1279.866 V 0 H 0 Z"
         id="path24" />
    </clipPath>
  </defs>
  <sodipodi:namedview
     id="base"
     pagecolor="#ffffff"
     bordercolor="#666666"
     borderopacity="1.0"
     inkscape:pageopacity="0.0"
     inkscape:pageshadow="2"
     inkscape:zoom="0.24748737"
     inkscape:cx="3425.7999"
     inkscape:cy="693.94803"
     inkscape:document-units="px"
     inkscape:current-layer="layer1"
     inkscape:document-rotation="0"
     showgrid="false"
     units="in"
     inkscape:window-width="1920"
     inkscape:window-height="1015"
     inkscape:window-x="0"
     inkscape:window-y="0"
     inkscape:window-maximized="1"
     inkscape:pagecheckerboard="true" />
  <metadata
     id="metadata5">
    <rdf:RDF>
      <cc:Work
         rdf:about="">
        <dc:format>image/svg+xml</dc:format>
        <dc:type
           rdf:resource="http://purl.org/dc/dcmitype/StillImage" />
        <dc:title></dc:title>
      </cc:Work>
    </rdf:RDF>
  </metadata>
  <g
     inkscape:label="Layer 1"
     inkscape:groupmode="layer"
     id="layer1">
    <g
       id="g28"
       transform="matrix(0.8302646,0,0,-0.8302646,153.16907,120.24077)">
      <path
         d="m 0,0 c -17.924,3.364 -35.554,-6.101 -43.543,-19.264 0.338,-0.093 0.657,-0.209 0.986,-0.266 7.63,-1.323 15.191,-2.948 22.635,-5.093 0.699,-0.202 1.277,-0.145 1.916,0.25 2.266,1.401 4.723,2.346 7.366,2.725 0.727,0.105 1.106,0.425 1.428,1.056 3.248,6.373 6.256,12.855 8.864,19.518 C -0.212,-0.728 -0.117,-0.366 0,0 m -30.824,-79.863 c 0.117,0.559 0.228,1.013 0.308,1.473 1.261,7.299 2.825,14.532 4.874,21.651 0.321,1.115 0.226,2.014 -0.361,3.001 -1.615,2.71 -2.545,5.655 -2.697,8.819 -0.036,0.769 -0.325,1.19 -1.064,1.514 -6.274,2.749 -12.621,5.309 -19.111,7.507 -0.384,0.13 -0.779,0.231 -1.178,0.348 -3.511,-18.504 5.759,-35.881 19.229,-44.313 m 67.195,29.671 c 1.508,10.017 0.03,19.393 -4.813,28.068 -4.042,7.241 -9.6,13.132 -17.176,17.218 -0.182,-1.311 -0.344,-2.43 -0.492,-3.552 -0.886,-6.71 -2.04,-13.374 -3.486,-19.986 -0.167,-0.765 -0.096,-1.373 0.376,-2.019 1.99,-2.723 3.335,-5.731 3.824,-9.087 0.096,-0.657 0.413,-1.02 1.008,-1.323 6.416,-3.253 12.913,-6.326 19.63,-8.915 0.31,-0.119 0.626,-0.225 1.129,-0.404 m -50.924,-35.984 c 4.311,-1.565 16.663,-0.944 24.301,2.351 9.316,4.02 16.449,10.38 21.68,19.284 -1.127,0.172 -2.035,0.332 -2.948,0.447 -6.798,0.86 -13.543,2.024 -20.238,3.471 -1.085,0.234 -1.922,0.115 -2.862,-0.506 -2.678,-1.768 -5.503,-3.238 -8.777,-3.586 -0.965,-0.102 -1.923,-0.271 -2.898,-0.412 -3.1,-6.924 -5.927,-13.888 -8.258,-21.049 M 7.007,22.392 c -10.799,2.363 -21.42,1.864 -31.856,-0.93 -14.156,-3.791 -25.617,-11.837 -34.778,-23.232 -3.333,-4.144 -8.4,-12.734 -8.539,-14.657 0.296,-0.027 0.592,-0.051 0.888,-0.079 3.347,-0.319 6.698,-0.604 10.041,-0.968 2.834,-0.309 5.661,-0.686 8.485,-1.083 0.814,-0.114 1.322,0.072 1.813,0.779 1.164,1.678 2.412,3.301 3.673,4.91 5.813,7.422 13.414,12.209 22.306,15.084 3.796,1.228 7.725,1.685 11.68,1.98 2.813,0.21 5.618,0.125 8.415,-0.244 0.746,-0.099 1.494,-0.191 2.241,-0.287 2.25,6.164 4.185,12.28 5.631,18.727 m -40.772,-126.975 c 0.074,0.499 0.146,0.868 0.182,1.241 0.34,3.56 0.643,7.124 1.022,10.68 0.267,2.496 0.597,4.988 0.983,7.469 0.15,0.966 -0.008,1.629 -0.916,2.105 -0.56,0.293 -1.045,0.732 -1.558,1.112 -3.258,2.41 -6.462,4.894 -9.072,8.022 -9.299,11.147 -12.664,23.967 -10.685,38.27 0.058,0.414 0.087,0.832 0.139,1.34 -6.238,1.963 -12.47,3.697 -18.83,4.965 -6.978,-32.85 11.196,-63.139 38.735,-75.204 m 73.691,53.136 c 2.897,-1.386 15.472,-5.176 18.634,-5.596 6.816,30.309 -9.246,63.299 -39.836,75.717 -1.205,-6.556 -2.41,-13.113 -3.645,-19.832 9.164,-4.729 15.981,-11.85 20.599,-21.07 4.64,-9.26 5.596,-19.077 4.248,-29.219 m -60.656,-57.24 c 13.103,-3.242 32.388,-1.993 48.445,8.078 12.335,7.735 21.709,18.14 27.244,31.739 -6.66,1.245 -13.174,2.463 -19.835,3.708 -3.254,-5.9 -7.318,-11.199 -12.748,-15.367 -5.439,-4.177 -11.374,-7.363 -18.11,-8.796 -6.607,-1.405 -13.284,-1.908 -19.936,-0.537 -1.112,-2.633 -4.071,-13.681 -5.06,-18.825 m -51.385,92.634 c 4.351,10.042 10.374,19.025 18.82,26.268 8.418,7.218 17.956,12.345 28.697,15.06 10.7,2.705 21.52,2.97 32.325,0.707 1.027,2.906 3.208,17.866 2.905,19.732 -50.16,9.89 -92.679,-22.973 -103.842,-61.313 6.926,-0.149 13.86,-0.298 21.095,-0.454 m -23.717,-9.713 c -3.671,-16.555 -2.815,-42.271 11.821,-65.308 11.844,-18.642 28.2,-31.721 49.524,-38.388 0.027,0.323 0.067,0.61 0.073,0.897 0.136,6.429 0.256,12.859 0.422,19.288 0.017,0.643 -0.237,0.911 -0.741,1.155 -1.418,0.686 -2.821,1.405 -4.232,2.105 -7.242,3.593 -13.708,8.226 -19.231,14.165 -4.494,4.832 -8.35,10.106 -11.406,15.958 -4.619,8.845 -7.262,18.222 -7.807,28.212 -0.303,5.556 -0.154,11.061 0.833,16.539 0.148,0.821 0.255,1.649 0.391,2.538 -6.6,1.279 -13.097,2.264 -19.647,2.839 m 71.568,-106.419 c 49.011,-9.5 91.715,21.749 103.616,61.385 -6.818,0.471 -13.643,0.943 -20.647,1.427 -3.387,-7.345 -7.155,-14.631 -12.78,-20.776 -5.631,-6.15 -12.009,-11.347 -19.37,-15.284 -7.305,-3.908 -15.02,-6.63 -23.276,-7.675 -8.242,-1.044 -16.463,-1.089 -24.59,0.732 -0.817,-1.874 -3.106,-17.308 -2.953,-19.809 M 19.264,22.518 c 0.196,-0.109 0.447,-0.263 0.711,-0.391 1.76,-0.859 3.524,-1.71 5.284,-2.568 7.917,-3.859 14.743,-9.14 20.568,-15.738 7.366,-8.343 12.622,-17.824 15.555,-28.58 1.307,-4.794 1.868,-9.695 2.188,-14.63 0.324,-4.989 0.14,-9.96 -0.717,-14.896 -0.208,-1.204 -0.394,-2.411 -0.602,-3.693 6.612,-1.341 13.125,-2.454 19.854,-2.992 4.08,23.473 0.701,45.542 -12.002,65.663 C 58.34,23.322 41.939,36.38 20.717,42.999 20.239,36.269 19.758,29.486 19.264,22.518 m 1.489,24.56 c 2,-0.74 3.996,-1.471 5.986,-2.213 19.795,-7.386 35.081,-20.301 46.35,-38.041 4.261,-6.708 7.545,-13.916 9.971,-21.502 1.17,-3.655 2.108,-7.369 2.771,-11.144 0.928,-5.294 1.336,-10.652 1.522,-16.015 0.206,-5.932 -0.324,-11.828 -1.37,-17.674 -0.101,-0.565 -0.174,-1.135 -0.272,-1.782 6.719,-0.517 13.255,-0.662 19.892,-0.503 4.335,29.671 -0.998,57.231 -17.857,81.991 C 71.232,44.447 48.702,60.563 19.893,67.559 20.18,60.725 20.464,53.97 20.753,47.078 M -97.209,-15.665 c 0.407,1.104 0.831,2.215 1.229,3.334 3.136,8.834 7.135,17.211 12.797,24.749 4.365,5.811 9.213,11.169 14.683,15.943 7.141,6.234 15.115,11.178 23.793,14.986 6.968,3.056 14.155,5.428 21.714,6.428 4.553,0.603 9.146,0.928 13.729,1.275 5.032,0.381 10.04,-0.055 15.029,-0.718 1.761,-0.234 3.514,-0.53 5.361,-0.811 0.487,6.609 0.786,13.134 0.505,19.657 -25.048,4.437 -58.948,0.319 -86.926,-21.21 -21.611,-16.629 -36.165,-37.937 -42.532,-64.741 6.933,0.373 13.684,0.735 20.618,1.108 M 83.193,-70.841 c -7.128,-22.829 -20.942,-40.627 -41.423,-53.112 -20.531,-12.516 -42.817,-15.803 -66.474,-12.009 -0.489,-6.6 -0.82,-13.156 -0.633,-19.712 67.759,-10.874 119.384,38.153 129.052,85.691 -6.752,-0.282 -13.504,-0.564 -20.522,-0.858 m -202.556,46.111 c -4.305,-24.426 -0.576,-58.228 20.926,-86.458 16.647,-21.854 38.121,-36.485 65.088,-42.888 -0.374,6.945 -0.74,13.737 -1.11,20.591 -0.32,0.128 -0.667,0.279 -1.022,0.408 -4.963,1.802 -9.928,3.607 -14.645,5.998 -10.306,5.223 -19.225,12.273 -26.954,20.821 -9.342,10.331 -15.969,22.229 -20.153,35.503 -2.008,6.37 -3.067,12.914 -3.556,19.559 -0.2,2.718 -0.487,5.441 -0.479,8.161 0.014,4.343 0.218,8.686 0.916,12.988 0.243,1.498 0.453,3.001 0.695,4.612 -6.614,0.529 -13.107,0.772 -19.706,0.705 m 248.805,-35.601 c 0.065,0.21 0.121,0.328 0.137,0.451 0.577,4.31 0.956,8.639 0.988,12.985 0.024,3.235 -0.104,6.472 -0.224,9.706 -0.189,5.109 -0.611,10.201 -1.359,15.259 -1.75,11.825 -5.249,23.14 -9.979,34.094 -7.743,17.93 -19.195,33.177 -33.565,46.3 -5.258,4.803 -10.772,9.3 -16.709,13.248 -8.686,5.778 -17.974,10.383 -27.724,14.074 -7.631,2.889 -15.561,4.664 -23.513,6.36 -0.266,0.056 -0.554,0.007 -0.781,0.007 0.951,-6.923 1.887,-13.743 2.829,-20.61 1.012,-0.285 2.03,-0.588 3.057,-0.856 6.475,-1.69 12.817,-3.813 18.904,-6.568 C 57.705,56.786 71.567,46.297 83.037,32.696 95.808,17.554 104.202,0.26 108.3,-19.118 c 1.362,-6.436 1.871,-12.967 2.234,-19.521 0.375,-6.786 0.101,-13.537 -0.858,-20.263 -0.129,-0.904 -0.221,-1.813 -0.344,-2.834 6.844,0.305 13.501,0.678 20.11,1.405 M 10.186,93.202 c -0.313,0.079 -0.515,0.16 -0.722,0.177 -3.437,0.283 -6.872,0.61 -10.314,0.823 -4.942,0.305 -9.881,0.034 -14.814,-0.269 -5.016,-0.308 -10.023,-0.746 -14.984,-1.581 -8.04,-1.354 -15.848,-3.563 -23.508,-6.331 -21.055,-7.605 -38.911,-19.949 -54.034,-36.371 -9.737,-10.573 -17.849,-22.227 -23.746,-35.374 -1.96,-4.374 -3.869,-8.77 -5.368,-13.326 -2.092,-6.357 -3.594,-12.869 -4.941,-19.418 -0.081,-0.394 -0.139,-0.792 -0.213,-1.217 6.977,0.863 13.806,1.707 20.715,2.561 0.13,0.392 0.292,0.827 0.419,1.271 0.455,1.598 0.906,3.196 1.344,4.798 2.562,9.369 6.188,18.3 11.059,26.709 3.316,5.725 7.121,11.116 11.326,16.221 4.617,5.606 9.712,10.745 15.315,15.368 18.973,15.656 40.695,24.637 65.213,26.849 8.015,0.723 15.998,0.456 23.973,-0.493 1.506,-0.18 3.017,-0.316 4.641,-0.485 -0.201,6.818 -0.653,13.465 -1.361,20.088 m 97.573,-162.82 c -0.376,-1.318 -0.786,-2.699 -1.163,-4.09 -2.405,-8.865 -5.572,-17.422 -10.023,-25.489 -6.521,-11.819 -14.695,-22.323 -24.721,-31.363 -9.862,-8.89 -20.905,-15.947 -33.152,-21.089 -8.151,-3.423 -16.554,-6.044 -25.288,-7.459 -7.953,-1.289 -15.973,-1.834 -24.037,-1.644 -4.089,0.097 -8.159,0.409 -12.207,1.005 -0.781,0.116 -1.572,0.172 -2.483,0.269 0.175,-6.803 0.54,-13.46 1.282,-20.281 35.348,-3.884 67.648,4.04 96.842,24.386 29.958,22.326 49.161,51.409 55.707,88.558 -6.947,-0.938 -13.799,-1.863 -20.757,-2.803 m -251.115,43.552 c -4.352,-33.116 3.674,-75.186 33.489,-108.228 21.474,-23.798 47.699,-38.8 79.422,-44.382 -0.863,6.988 -1.707,13.815 -2.561,20.723 -1.038,0.286 -2.096,0.596 -3.163,0.869 -13.203,3.372 -25.476,8.785 -36.747,16.491 -16.251,11.11 -28.999,25.332 -38.209,42.716 -9.265,17.488 -13.519,36.2 -13.448,55.938 0.018,5.202 0.421,10.381 1.181,15.53 0.071,0.483 0.082,0.974 0.129,1.557 -6.833,-0.087 -13.48,-0.539 -20.093,-1.214 m -23.379,1.872 c 0.396,0.03 0.61,0.027 0.817,0.066 6.269,1.193 12.536,2.396 18.808,3.579 0.581,0.11 0.888,0.38 0.999,0.965 0.247,1.296 0.534,2.585 0.806,3.876 1.324,6.286 2.856,12.519 4.821,18.638 1.617,5.036 3.655,9.911 6.001,14.64 18.09,36.483 46.404,61.243 85.122,74.006 6.641,2.189 13.423,3.866 20.367,4.736 4.602,0.576 9.235,0.922 13.858,1.32 7.408,0.638 14.81,0.513 22.203,-0.282 0.865,-0.093 1.736,-0.137 2.704,-0.211 -0.702,6.8 -1.68,13.391 -2.792,19.934 -33.858,3.086 -78.58,-4.839 -115.771,-35.739 -33.084,-27.487 -52.29,-62.733 -57.943,-105.528 M 15.981,96.226 c 0.732,-0.158 1.477,-0.325 2.225,-0.479 6.127,-1.266 12.253,-2.556 18.22,-4.463 16.827,-5.376 32.032,-13.77 45.73,-24.882 14.885,-12.075 26.812,-26.613 35.782,-43.552 10.429,-19.691 15.832,-40.694 16.3,-62.97 0.122,-5.801 -0.219,-11.581 -0.747,-17.354 -0.073,-0.789 -0.096,-1.583 -0.15,-2.501 6.807,0.807 13.447,1.65 20.167,2.919 2.647,43.187 -8.455,82.022 -35.892,115.682 -32.308,39.638 -75.504,54.946 -106.12,57.925 1.484,-6.725 2.966,-13.44 4.485,-20.325 m -45.822,-278.772 c -2.128,0.46 -4.245,0.911 -6.36,1.376 -6.778,1.491 -13.502,3.172 -20.02,5.597 -11.198,4.167 -21.647,9.756 -31.451,16.562 -9.601,6.665 -18.213,14.443 -25.875,23.264 -9.34,10.752 -16.918,22.63 -22.64,35.681 -4.03,9.194 -7.138,18.682 -9.144,28.528 -1.159,5.686 -1.813,11.437 -2.221,17.216 -0.258,3.652 -0.451,7.313 -0.539,10.973 -0.117,4.858 0.178,9.706 0.698,14.539 0.081,0.744 0.119,1.492 0.176,2.239 -2.463,0.079 -18.434,-2.258 -20.01,-2.901 -3.922,-46.914 12.249,-96.861 52.232,-132.962 25.344,-22.884 55.042,-36.435 89.064,-40.456 -1.317,6.853 -2.609,13.573 -3.91,20.344 m 9.037,-20.914 c 38.232,-3.344 87.598,6.799 126.7,45.544 26.846,26.6 42.454,58.762 46.971,96.347 -6.86,-1.517 -13.582,-3.005 -20.373,-4.507 -0.106,-0.411 -0.234,-0.856 -0.336,-1.306 -0.787,-3.488 -1.556,-6.98 -2.356,-10.465 -1.221,-5.319 -2.768,-10.547 -4.707,-15.643 -2.289,-6.016 -5.042,-11.827 -8.149,-17.469 -7.737,-14.048 -17.538,-26.464 -29.458,-37.192 -10.523,-9.47 -22.188,-17.236 -35.05,-23.162 -13.038,-6.008 -26.614,-10.234 -40.92,-11.813 -7.7,-0.85 -15.429,-1.466 -23.192,-1.143 -2.722,0.113 -5.439,0.318 -8.157,0.498 -1.217,0.082 -2.432,0.206 -3.82,0.325 0.712,-6.81 1.646,-13.443 2.847,-20.014 m 179.819,159.813 c -0.014,-91.92 -74.458,-166.303 -166.535,-166.118 -91.388,0.184 -165.876,73.91 -165.792,166.331 0.084,92.294 74.685,166.192 166.519,165.985 92.207,-0.209 165.777,-74.854 165.808,-166.198"
         style="fill:#333333;fill-opacity:1;fill-rule:nonzero;stroke:none"
         id="path30" />
    </g>
    <g
       id="g32"
       transform="matrix(0.8302646,0,0,-0.8302646,354.06271,146.70257)">
      <path
         d="M 0,0 C 0,8.399 0.759,21.209 1.175,29.609 H 0.342 C -2.987,22.14 -6.734,14.815 -10.482,7.273 L -27.831,-21.583 H 43.792 V -44.904 H -57.153 v 21.166 L -8.896,55.746 H 28.539 V -76.441 H 0 Z"
         style="fill:#333333;fill-opacity:1;fill-rule:nonzero;stroke:none"
         id="path34" />
    </g>
    <g
       id="g36"
       transform="matrix(0.8302646,0,0,-0.8302646,399.83428,196.8112)">
      <path
         d="m 0,0 13.767,19.33 c 7.91,-7.298 17.289,-13.223 28.55,-13.223 13.514,0 22.202,7.172 22.202,20.734 0,13.218 -8.518,20.439 -20.757,20.439 -7.664,0 -11.654,-1.689 -19.564,-6.757 l -13.644,8.818 3.624,66.758 H 89.143 V 90.375 H 40.586 L 38.409,65.583 c 5.017,2.141 9.253,3.034 14.687,3.034 22.822,0 42.095,-12.906 42.095,-41.018 0,-29.338 -22.702,-46.185 -48.489,-46.185 C 25.126,-18.586 10.383,-10.383 0,0"
         style="fill:#333333;fill-opacity:1;fill-rule:nonzero;stroke:none"
         id="path38" />
    </g>
    <g
       id="g40"
       transform="matrix(0.8302646,0,0,-0.8302646,530.4149,198.59253)">
      <path
         d="M 0,0 C 31.236,0 46.817,19.574 46.817,53.354 46.817,87.133 31.236,105.745 0,105.745 H -15.161 V 0 Z m -32.165,119.687 h 33.43 c 41.087,0 63.115,-23.879 63.115,-66.333 0,-42.454 -22.028,-67.297 -62.366,-67.297 h -34.179 z"
         style="fill:#981c20;fill-opacity:1;fill-rule:nonzero;stroke:none"
         id="path42" />
    </g>
    <g
       id="g44"
       transform="matrix(0.8302646,0,0,-0.8302646,607.72274,127.99696)">
      <path
         d="m 0,0 h 13.835 l 1.414,-18.023 h 0.558 c 6.889,12.557 17.004,20.467 28.138,20.467 4.382,0 7.458,-0.556 10.565,-2.036 l -3.126,-14.693 c -3.408,1.073 -5.636,1.63 -9.601,1.63 -8.359,0 -18.346,-6.023 -25.036,-22.765 V -98.971 H 0 Z"
         style="fill:#981c20;fill-opacity:1;fill-rule:nonzero;stroke:none"
         id="path46" />
    </g>
    <path
       d="m 667.72987,127.99704 h 13.90444 v 82.17212 h -13.90444 z m -2.54559,-25.87526 c 0,-5.459829 4.19865,-8.981812 9.6045,-8.981812 5.40668,0 9.60533,3.521983 9.60533,8.981812 0,5.24896 -4.19865,8.98434 -9.60533,8.98434 -5.40585,0 -9.6045,-3.73538 -9.6045,-8.98434"
       style="fill:#981c20;fill-opacity:1;fill-rule:nonzero;stroke:none;stroke-width:0.830265"
       id="path48" />
    <g
       id="g50"
       transform="matrix(0.8302646,0,0,-0.8302646,698.82892,127.99696)">
      <path
         d="m 0,0 h 17.263 l 18.715,-56.224 c 2.957,-9.666 6.172,-19.738 9.131,-29.188 h 0.815 c 2.957,9.45 6.172,19.522 9.131,29.188 L 73.771,0 h 16.404 l -35,-98.971 H 35.708 Z"
         style="fill:#981c20;fill-opacity:1;fill-rule:nonzero;stroke:none"
         id="path52" />
    </g>
    <g
       id="g54"
       transform="matrix(0.8302646,0,0,-0.8302646,841.6214,162.46547)">
      <path
         d="M 0,0 C 0,19.833 -8.919,30.615 -24.396,30.615 -38.311,30.615 -50.744,19.445 -52.782,0 Z m -69.187,-8.099 c 0,32.212 21.709,52.058 44.491,52.058 25.244,0 39.496,-18.129 39.496,-46.441 0,-3.535 -0.3,-7.069 -0.782,-9.513 h -66.65 c 1.199,-20.966 14.019,-34.561 32.884,-34.561 9.496,0 17.298,3.066 24.628,7.91 l 5.998,-10.989 C 2.199,-55.312 -8.344,-59.9 -21.805,-59.9 c -26.38,0 -47.382,19.29 -47.382,51.801"
         style="fill:#981c20;fill-opacity:1;fill-rule:nonzero;stroke:none"
         id="path56" />
    </g>
    <g
       id="g58"
       transform="matrix(0.8302646,0,0,-0.8302646,866.36478,200.7914)">
      <path
         d="m 0,0 8.27,11.031 c 8.592,-6.924 17.328,-11.725 29.214,-11.725 12.993,0 19.446,6.926 19.446,15.373 0,10.184 -11.683,14.685 -22.634,18.757 -13.869,5.07 -29.517,11.894 -29.517,28.59 0,15.835 12.687,28.094 34.139,28.094 12.319,0 23.1,-5.046 30.772,-11.121 L 61.679,68.268 c -6.815,5.036 -13.813,8.808 -22.57,8.808 -12.467,0 -18.222,-6.647 -18.222,-14.193 0,-9.411 10.759,-12.992 21.968,-17.172 14.276,-5.38 30.179,-11.186 30.179,-30.026 0,-16.05 -12.75,-29.424 -36.107,-29.424 C 22.867,-13.739 9.303,-7.78 0,0"
         style="fill:#981c20;fill-opacity:1;fill-rule:nonzero;stroke:none"
         id="path60" />
    </g>
    <g
       id="g668"
       transform="matrix(0.73363705,0,0,0.73363705,900.63427,-141.46316)">
      <g
         id="g658"
         style="fill:#333333;fill-opacity:1">
        <path
           fill="#ffffff"
           d="m 307.259,476.064 c -4.607,1.153 -10.684,2.375 -18.238,3.669 -7.553,1.296 -16.294,1.941 -26.223,1.941 -8.633,0 -15.901,-1.261 -21.8,-3.774 -5.9,-2.516 -10.648,-6.079 -14.244,-10.685 -3.598,-4.606 -6.188,-10.037 -7.771,-16.296 -1.584,-6.259 -2.373,-13.197 -2.373,-20.828 V 367.07 h 20.072 v 58.704 c 0,13.672 2.158,23.457 6.475,29.354 4.316,5.9 11.581,8.85 21.798,8.85 2.159,0 4.387,-0.073 6.692,-0.219 2.3,-0.141 4.457,-0.322 6.474,-0.539 2.014,-0.215 3.847,-0.43 5.504,-0.646 1.651,-0.217 2.838,-0.467 3.56,-0.754 v -94.75 h 20.073 v 108.994 z"
           id="path646"
           style="fill:#333333;fill-opacity:1" />
        <path
           fill="#ffffff"
           d="m 356.25,372.034 c 2.444,-1.581 6.151,-3.237 11.115,-4.963 4.964,-1.728 10.684,-2.59 17.159,-2.59 8.055,0 15.217,1.439 21.475,4.315 6.258,2.88 11.547,6.907 15.863,12.089 4.318,5.178 7.589,11.367 9.82,18.561 2.228,7.196 3.346,15.107 3.346,23.739 0,9.066 -1.333,17.234 -3.993,24.498 -2.665,7.267 -6.442,13.416 -11.333,18.452 -4.892,5.038 -10.79,8.925 -17.698,11.654 -6.906,2.732 -14.676,4.101 -23.31,4.101 -9.354,0 -17.626,-0.646 -24.82,-1.94 -7.197,-1.295 -13.095,-2.59 -17.698,-3.885 V 315.269 l 20.072,-3.451 v 60.216 z m 0,89.785 c 2.014,0.577 4.854,1.116 8.525,1.618 3.668,0.505 8.235,0.755 13.706,0.755 10.791,0 19.424,-3.562 25.9,-10.683 6.474,-7.122 9.712,-17.23 9.712,-30.325 0,-5.75 -0.577,-11.146 -1.727,-16.187 -1.154,-5.035 -3.021,-9.387 -5.611,-13.057 -2.591,-3.67 -5.937,-6.546 -10.036,-8.635 -4.102,-2.083 -9.032,-3.128 -14.785,-3.128 -5.47,0 -10.505,0.938 -15.108,2.806 -4.607,1.872 -8.132,3.814 -10.576,5.826 z"
           id="path648"
           style="fill:#333333;fill-opacity:1" />
        <path
           fill="#ffffff"
           d="m 547.042,476.064 c -4.606,1.153 -10.685,2.375 -18.239,3.669 -7.554,1.296 -16.294,1.941 -26.223,1.941 -8.635,0 -15.902,-1.261 -21.8,-3.774 -5.901,-2.516 -10.65,-6.079 -14.244,-10.685 -3.599,-4.606 -6.188,-10.037 -7.771,-16.296 -1.583,-6.259 -2.374,-13.197 -2.374,-20.828 V 367.07 h 20.074 v 58.704 c 0,13.672 2.157,23.457 6.475,29.354 4.316,5.9 11.58,8.85 21.799,8.85 2.156,0 4.387,-0.073 6.689,-0.219 2.299,-0.141 4.459,-0.322 6.475,-0.539 2.014,-0.215 3.849,-0.43 5.504,-0.646 1.652,-0.217 2.84,-0.467 3.562,-0.754 v -94.75 h 20.072 v 108.994 z"
           id="path650"
           style="fill:#333333;fill-opacity:1" />
        <path
           fill="#ffffff"
           d="m 575.96,370.308 c 4.603,-1.15 10.715,-2.375 18.346,-3.671 7.625,-1.294 16.404,-1.941 26.33,-1.941 8.922,0 16.33,1.262 22.23,3.776 5.898,2.521 10.611,6.043 14.137,10.576 3.523,4.532 6.008,9.967 7.447,16.296 1.438,6.334 2.16,13.311 2.16,20.937 V 479.3 h -20.074 v -58.705 c 0,-6.905 -0.469,-12.804 -1.404,-17.698 -0.936,-4.888 -2.479,-8.848 -4.639,-11.868 -2.16,-3.023 -5.037,-5.216 -8.633,-6.584 -3.602,-1.368 -8.061,-2.051 -13.381,-2.051 -2.158,0 -4.393,0.074 -6.691,0.216 -2.303,0.145 -4.498,0.326 -6.582,0.54 -2.092,0.216 -3.961,0.47 -5.613,0.756 -1.655,0.29 -2.844,0.506 -3.562,0.646 V 479.3 h -20.07 V 370.308 Z"
           id="path652"
           style="fill:#333333;fill-opacity:1" />
        <path
           fill="#ffffff"
           d="m 713.011,367.071 h 42.518 v 16.835 h -42.518 v 51.796 c 0,5.613 0.428,10.252 1.295,13.921 0.863,3.673 2.156,6.55 3.883,8.634 1.729,2.088 3.885,3.564 6.475,4.425 2.59,0.863 5.611,1.297 9.066,1.297 6.186,0 11.08,-0.682 14.676,-2.051 3.594,-1.366 6.043,-2.339 7.338,-2.913 l 4.316,16.404 c -2.016,1.007 -5.578,2.302 -10.684,3.881 -5.107,1.582 -10.898,2.375 -17.375,2.375 -7.625,0 -13.92,-0.97 -18.883,-2.913 -4.965,-1.944 -8.959,-4.856 -11.979,-8.739 -3.021,-3.888 -5.146,-8.67 -6.367,-14.354 -1.223,-5.683 -1.836,-12.267 -1.836,-19.749 V 335.775 l 20.074,-3.451 v 34.747 z"
           id="path654"
           style="fill:#333333;fill-opacity:1" />
        <path
           fill="#ffffff"
           d="m 864.737,476.064 c -4.607,1.153 -10.684,2.375 -18.238,3.669 -7.555,1.296 -16.293,1.941 -26.221,1.941 -8.635,0 -15.902,-1.261 -21.801,-3.774 -5.9,-2.516 -10.65,-6.079 -14.248,-10.685 -3.596,-4.606 -6.186,-10.037 -7.77,-16.296 -1.584,-6.259 -2.373,-13.197 -2.373,-20.828 V 367.07 h 20.074 v 58.704 c 0,13.672 2.158,23.457 6.473,29.354 4.318,5.9 11.582,8.85 21.801,8.85 2.158,0 4.387,-0.073 6.691,-0.219 2.299,-0.141 4.455,-0.322 6.473,-0.539 2.016,-0.215 3.848,-0.43 5.506,-0.646 1.652,-0.217 2.838,-0.467 3.559,-0.754 v -94.75 h 20.074 z"
           id="path656"
           style="fill:#333333;fill-opacity:1" />
      </g>
      <circle
         fill="#e95420"
         cx="928.61499"
         cy="357.13501"
         r="45.325001"
         id="circle660" />
      <path
         fill="#ffffff"
         d="m 905.093,357.135 c 0,3.219 -2.609,5.828 -5.83,5.828 -3.217,0 -5.826,-2.609 -5.826,-5.828 0,-3.218 2.609,-5.827 5.826,-5.827 3.22,0 5.83,2.609 5.83,5.827 z m 33.154,28.335 c 1.609,2.786 5.172,3.741 7.959,2.133 2.787,-1.609 3.742,-5.173 2.133,-7.96 -1.609,-2.787 -5.172,-3.741 -7.959,-2.132 -2.787,1.609 -3.742,5.173 -2.133,7.959 z m 10.092,-50.842 c 1.609,-2.787 0.656,-6.351 -2.133,-7.958 -2.785,-1.609 -6.35,-0.654 -7.959,2.132 -1.609,2.787 -0.654,6.351 2.133,7.959 2.787,1.611 6.351,0.655 7.959,-2.133 z m -19.723,5.889 c 8.684,0 15.809,6.656 16.553,15.146 l 8.434,-0.132 c -0.4,-6.31 -3.137,-11.983 -7.354,-16.167 -2.232,0.862 -4.822,0.745 -7.057,-0.546 -2.236,-1.291 -3.633,-3.477 -4.002,-5.845 -2.096,-0.569 -4.301,-0.874 -6.574,-0.874 -3.988,0 -7.758,0.933 -11.105,2.592 l 4.104,7.369 c 2.126,-0.988 4.501,-1.543 7.001,-1.543 z m -16.619,16.618 c 0,-5.622 2.793,-10.592 7.066,-13.599 l -4.33,-7.237 c -5.016,3.349 -8.752,8.459 -10.328,14.448 1.865,1.503 3.061,3.805 3.061,6.388 0,2.584 -1.195,4.886 -3.061,6.389 1.576,5.99 5.312,11.1 10.328,14.45 l 4.33,-7.238 c -4.273,-3.007 -7.066,-7.977 -7.066,-13.601 z m 16.619,16.621 c -2.5,0 -4.875,-0.555 -7.002,-1.545 l -4.104,7.369 c 3.348,1.66 7.117,2.592 11.105,2.592 2.273,0 4.479,-0.304 6.574,-0.873 0.369,-2.369 1.766,-4.555 4.002,-5.845 2.234,-1.291 4.824,-1.408 7.057,-0.546 4.217,-4.186 6.953,-9.859 7.354,-16.168 l -8.434,-0.132 c -0.743,8.49 -7.868,15.148 -16.552,15.148 z"
         id="path662" />
    </g>
    <rect
       style="fill:#333333;fill-opacity:1;fill-rule:evenodd;stroke-width:0.244368"
       id="rect689"
       width="8.5256109"
       height="245.33678"
       x="992.13525"
       y="34.640121" />
  </g>
</svg>
